<svg xmlns="http://www.w3.org/2000/svg" viewBox="0 0 960 640"><circle cx="480" cy="320" r="270.787" fill="#fff"/><path d="M480 1.427c-175.943 0-318.573 142.63-318.573 318.573S304.057 638.573 480 638.573 798.573 495.943 798.573 320 655.943 1.427 480 1.427Zm0 589.36c-149.551 0-270.787-121.236-270.787-270.787S330.449 49.213 480 49.213 750.787 170.449 750.787 320 629.552 590.787 480 590.787Z" fill="#010101"/><path fill="none" d="m529.983 240.522-7.976-7.974-72.73.053v39.392h72.68l8.026-8.026v-23.445zM529.983 375.912l-7.976-7.974-72.73.053v39.395h72.68l8.026-8.026v-23.448z"/><path d="M749.797 343.096c.643-7.615.99-15.314.99-23.096s-.347-15.481-.99-23.096H631.85v-96.092l55.25-55.248a272.419 272.419 0 0 0-32.664-32.664l-55.249 55.249L567.64 136.6l-64.543.028V50.203c-7.616-.643-15.315-.99-23.097-.99s-15.48.347-23.097.99v86.444l-127.538.055-23.801-23.802a272.446 272.446 0 0 0-32.664 32.664l77.8 77.799v73.54H210.203c-.644 7.616-.99 15.315-.99 23.097s.346 15.481.99 23.096H350.7v73.541l-15.737 15.738-62.062 62.062a272.436 272.436 0 0 0 32.664 32.663l23.802-23.802h127.537v86.499c7.616.643 15.315.99 23.097.99s15.482-.347 23.097-.99v-86.499h64.644l31.447-31.446 55.249 55.248a272.409 272.409 0 0 0 32.663-32.663l-55.249-55.249v-96.091h117.946Zm-400.469 140.24V446.24l21.335-21.335v-209.81L349.33 193.76v-37.105l210.045-.089 52.515 52.515v79.554L580.524 320l31.365 31.365v79.555l-52.415 52.415H349.328Z" fill="#ffb81c"/><path d="M611.889 351.365 580.524 320l31.365-31.365V209.08l-52.515-52.515-210.046.089v37.105l21.335 21.335v209.81L349.33 446.24v37.095h210.145l52.415-52.415v-79.555Zm-61.945 56.265-19.72 19.72H429.316v-79.307l100.955-.073 19.673 19.674v39.986Zm0-135.394-19.72 19.72H429.316v-79.304l100.955-.072 19.673 19.673v39.983Z" fill="#010101"/><path d="M429.316 212.652v79.305h100.908l19.72-19.721v-39.983l-19.673-19.673-100.955.072Zm19.961 59.341v-39.392l72.73-.053 7.976 7.973v23.446l-8.027 8.026h-72.679ZM429.316 348.043v79.306h100.908l19.72-19.72v-39.985l-19.673-19.675-100.955.074Zm19.961 59.343v-39.395l72.73-.053 7.976 7.974v23.448l-8.027 8.026h-72.679Z" fill="#ffb81c"/><path d="M681.272 587.172c0 6.441 5.228 11.67 11.67 11.67 6.447 0 11.67-5.229 11.67-11.67 0-6.448-5.223-11.67-11.67-11.67-6.442 0-11.67 5.222-11.67 11.67Zm20.839 0a9.168 9.168 0 0 1-9.17 9.169 9.17 9.17 0 0 1 0-18.338 9.166 9.166 0 0 1 9.17 9.169Z" fill="#010101"/><path d="M688.145 593.84h2.509v-5.428h1.795l2.525 5.429h2.758l-2.63-5.653a3.955 3.955 0 0 0 2.63-3.72 3.957 3.957 0 0 0-3.953-3.966l-5.634-.005v13.344Zm2.509-10.834h3.125a1.456 1.456 0 0 1 0 2.91h-3.125v-2.91Z" fill="#010101"/></svg>