<svg xmlns="http://www.w3.org/2000/svg" viewBox="0 0 960 640" xml:space="preserve"><path fill="#041E42" d="M742.41 535.604c-8.281 0-15.005 6.714-15.005 15.001 0 8.278 6.724 15.001 15.005 15.001 8.282 0 14.995-6.723 14.995-15 0-8.288-6.713-15.002-14.995-15.002zm0 26.784a11.772 11.772 0 0 1-11.782-11.783c0-6.51 5.265-11.774 11.782-11.774 6.51 0 11.78 5.264 11.78 11.774 0 6.512-5.27 11.783-11.78 11.783zm6.164-15.26a5.085 5.085 0 0 0-5.09-5.082h-7.228v17.123h3.213v-6.954h2.306l3.246 6.954h3.553l-3.389-7.251a5.095 5.095 0 0 0 3.39-4.79zm-5.09 1.872h-4.015v-3.747h4.015c1.033 0 1.877.839 1.877 1.875a1.878 1.878 0 0 1-1.877 1.872z"/><path fill="#C8102E" d="M480 640c-176.447 0-320-143.553-320-320S303.553 0 480 0s320 143.553 320 320-143.553 320-320 320z"/><path fill="#FFF" d="M479.678 631.538c-172.244 0-312.37-140.126-312.37-312.37 0-165.32 129.156-302.294 294.036-311.845l.644-.04 45.866.766c162.02 14.493 284.2 148.251 284.2 311.119 0 172.244-140.132 312.37-312.376 312.37z"/><path fill="#041E42" d="m506.415 25.555-.5-.774s25.432 41.608 33.882 53.412c8.16 11.401 28.487 52.226 8.817 84.787-17.201 28.469-42.054 35.948-63.759 35.948l-1.545.084c-21.705 0-46.56-7.477-63.76-35.948-19.67-32.558.658-73.383 8.82-84.787 8.446-11.802 33.882-53.41 33.882-53.41-155.596 9.014-278.996 138.049-278.996 295.9 0 163.701 132.708 296.407 296.406 296.407 163.7 0 296.408-132.706 296.408-296.406 0-154.679-118.49-281.687-269.655-295.213zm-26.58 564.036c-148.797 0-269.428-120.628-269.428-269.43 0-122.248 88.201-230.907 201.124-261.822l-5.949 8.869c-18.234 22.509-32.858 68.939-6.891 111.918 22.705 37.58 55.51 47.449 84.16 47.449l2.043-.113c28.65 0 61.455-9.872 84.158-47.451 25.966-42.976 12.022-86.015-4.854-110.56 0 0-2.885-4.078-6.956-7.129l10.605 4.114C673.43 101.91 749.265 202.18 749.265 320.16c0 148.803-120.628 269.43-269.43 269.43z"/><g fill="#041E42"><path d="M619.642 381.813v-41.378c0-9.836-8.478-13.901-8.478-13.901s-1.016.337 4.75-4.413c5.766-4.744 4.407-16.275 4.407-20.685V264.13c0-17.647-8.646-22.044-20.857-23.4h-59.688v40.018c3.782 0 9.836 5.201 9.836 12.209v88.968c0 6.782-5.48 11.87-10.853 11.87 0 5.428-.037 148.43 0 153.179.17 22.384-7.706 27.496-7.706 27.496 14.53-3.381 32.908-10.163 46.331-15.919 7.125-3.054 9.872-12.257 9.872-22.766l-.008-141.71c-5.648 0-12.54-5.046-12.54-12.15v-31.653c0-5.765 1.92-11.868 9.045-11.868 5.817 0 9.098 5.423 9.098 13.221v180.09c.28 16.284-1.777 19.404-2.494 19.997 14.182-8.18 22.32-13.402 33.496-23.562 3.73-3.391 4.946-8.31 5.288-25.264V393.794c-5.704 0-9.499-5.368-9.499-11.981zm-26.927-74.95c0 11.949-16.82 12.49-16.82.54v-16.751c0-12.481 16.009-13.025 16.82-.546.46 7.042 0 5.904 0 16.756zM336.686 393.793v102.309c0 4.407-1.992 12.333-7.781 15.745-5.45 3.212-10.308 1.492-10.308 1.492 12.98 14.181 27.575 25.896 44.004 35.289 7.12 4.07 14.558-1.655 14.558-11.149V393.794c-4.464 0-8.141-5.511-8.141-11.87v-89.306c0-7.104 5.184-11.871 9.834-11.871v-40.018H336.8v40.018c4.972 0 9.833 3.67 9.833 11.871v89.506c0 5.454-4.349 11.67-9.948 11.67z"/><path d="M304.243 240.39h-20.348c-21.028 0-26.665 19.329-26.665 33.912v100.35c3.676 51.417 22.75 92.61 52.516 126.869 9.798 11.276 21.288 6.45 21.288-11.864V265.825c0-22.385-16.617-25.436-26.79-25.436zm-.342 142.776c0 14.938-21.025 15.617-21.025.679v-92.473c0-14.243 20.099-14.927 21.025-.676.575 8.799 0 78.905 0 92.47zM382.243 393.793v147.75c0 10.348-10 12.181-10 12.181 20.01 10.73 38.776 18.595 62.199 22.251 10.852 1.696 19.363-5.265 19.363-16.454V352.304h-19.333v29.054c0 8.763-1.075 12.547-9.213 12.547-8.36 0-8.631-5.295-8.76-13.226-.057-3.391 0-84.332 0-88.061 0-7.85 8.311-11.871 13.226-11.871v-40.018H384.28v40.018c4.636 0 9.494 4.021 9.494 11.871v89.306c0 6.502-5.876 11.87-11.532 11.87z"/><path d="M458.808 393.793v166.658c0 15.432-11.506 18.216-11.506 18.216 9.212 1.093 23.032 1.65 32.615 1.65 10.95 0 20.832-.44 32.246-2.3 11.993-1.95 21.255-10.443 21.255-22.99V352.559h-22.045s.01 14.785 0 27.67c-.007 10.214-1.077 14.156-9.212 14.156-8.37 0-8.624-5.622-8.764-14.156-.02-1.389-.026-21.148-.02-36.403h21.135V314.66h-21.125l.01-20.435c0-7.798 1.443-13.818 10.6-13.818 7.463 0 8.48 6.782 8.48 12.548v13.14h21.281V240.98H449.99v39.766c11.562 0 16.278 4.804 16.278 11.87.233 6.102 0 89.307 0 89.307 0 6.782-2.627 11.87-7.46 11.87zM653.39 240.729h31.537c12.21 1.355 18.825 5.41 18.825 20.688v45.445h-26.115V290.92c0-13.224-18.65-13.582-18.65-.34v20.689c0 3.392 2.104 5.46 5.084 7.798 4.75 3.734 29.168 23.401 29.168 23.401 2.712 3.053 8.817 6.107 8.817 17.64 0 9.493 1.527 40.283-11.871 72.233-13.227 31.54-28.487 56.299-55.957 86.824V353.663h22.384v31.877c.337 11.874 18.99 10.516 18.99 1.696v-22.384c0-3.729 0-4.744-2.032-6.445-2.038-1.695-31.544-25.433-33.916-27.129-2.375-1.695-3.731-4.407-3.731-11.189v-62.402c.34-8.14 4.579-16.958 17.467-16.958z"/></g><path fill="#8F654D" d="M498.976 58.045s17.63 28.853 23.541 37.116c5.715 7.982 19.943 36.56 6.174 59.348-12.04 19.933-29.437 25.168-44.63 25.168l-1.082.058c-15.193 0-32.59-5.234-44.63-25.161-13.769-22.79.459-51.37 6.172-59.352 5.913-8.262 23.717-37.388 23.717-37.388 4.75-7.462 13.714-25 14.394-28.39 0 0 8.207 15.715 16.344 28.601z"/></svg>