<svg xmlns="http://www.w3.org/2000/svg" viewBox="0 0 960 640" xml:space="preserve"><path fill="#041E42" d="M529.265 604.271c-8.282 0-15.005 6.713-15.005 15.001 0 8.278 6.723 15.001 15.005 15.001 8.281 0 14.995-6.723 14.995-15 0-8.289-6.714-15.002-14.995-15.002zm0 26.783a11.772 11.772 0 0 1-11.782-11.782c0-6.51 5.264-11.774 11.782-11.774 6.51 0 11.78 5.264 11.78 11.774 0 6.512-5.27 11.782-11.78 11.782zm6.164-15.259a5.085 5.085 0 0 0-5.09-5.082h-7.229v17.123h3.213v-6.954h2.306l3.246 6.954h3.554l-3.39-7.252a5.095 5.095 0 0 0 3.39-4.789zm-5.09 1.872h-4.016v-3.747h4.015c1.033 0 1.878.839 1.878 1.875a1.878 1.878 0 0 1-1.878 1.872z"/><path fill="#FFF" d="M795.964 308.194c-1.286-4.61-5.368-8.83-9.93-10.281l-2.588-.82s3.923-6.77.526-13.992l-9.507-20.188c-1.767-3.734-5.628-6.95-9.624-7.993l-9.51-2.498s2.931-6.53-2.359-12.57l-17.16-19.61c-2.574-2.952-6.949-5.069-10.856-5.27l-9.062-.483c-.01-3.847-1.758-7.744-4.77-10.105l-21.958-17.239c-3.952-3.107-10.19-4.735-15.157-3.987l-23.831 3.633c-4.362.662-8.332 4.067-9.675 8.267l-3.624 11.427c-10.063-6.926-17.795-6.716-17.795-6.716l-.836-1.895 5.147-.715 4.721-21.116-19.386 2.697 1.85-2.704-.402-.61 19.142-4.755 4.924-21.964-21.805 5.41-1.606-5.142 25.582-9.995 5.308-23.731-30.764 12.017 2.903-17.103-3.283-2.57 33.639-72.368-59.526 1.706c-1.228-.17-30.035-4.217-32.73-4.595-5.232-2.896-24.02-12.2-56.44-17.719L480.005 0l-15.53 14.617c-32.417 5.519-51.206 14.823-56.438 17.72-2.687.377-31.504 4.424-32.725 4.594l-59.53-1.705 33.638 72.367-3.281 2.57 2.9 17.103-30.76-12.017 5.31 23.73 25.585 9.996-1.616 5.142-21.804-5.41 4.929 21.964 19.138 4.754-.392.61 1.845 2.705-19.395-2.697 4.734 21.116 5.148.715c-2.247 5.126-3.102 9.955-3.118 13.828a46.013 46.013 0 0 0-12.18 5.306l-6.964-21.95c-1.334-4.2-5.313-7.605-9.676-8.267L286 183.159c-4.97-.749-11.206.88-15.16 3.987l-21.958 17.238c-3.016 2.36-4.77 6.258-4.77 10.105l-9.071.483c-3.906.201-8.27 2.318-10.848 5.27l-17.167 19.61c-5.287 6.04-2.359 12.57-2.359 12.57l-9.51 2.498c-3.99 1.044-7.857 4.26-9.616 7.994l-9.508 20.187c-3.4 7.222.526 13.992.526 13.992l-2.586.82c-4.56 1.45-8.646 5.672-9.938 10.281l-5.19 18.516c-.903 3.22-.364 6.72 1.23 9.651l24.193 41.564c3.792 6.504 20.146 8.083 20.146 8.083 20.669 22.785 63.934 24.697 63.934 24.697s-18.014-18.353-26.54-31.598l15.513-.733c10.776 1.11 16.369 4.842 42.207-.596l4.29.576c21.314 21.314 39.47 14.214 82.969 39.342v-.07c5.187 7.314 11.662 17.084 17.142 27.05-3.069 57.214 20.063 73.475 20.063 73.475l-4.613 17.976c-10.947 15.683.145 29.313.145 29.313 2.237 6.41 7.994 9.501 13.506 13.116l1.111-3.065 8.12 5.843 2.49-6.599 7.272 7.89 3.25-8.84 3.554 3.878-1.534 3.158c-4.121 3.137-8.938 8.944-8.938 17.331l.502 18.041 2.744-2.523.619 1.321c.3 3.475 1.676 7.417 5.092 10.371l8.906 7.662.805-2.358 9.093 7.536 1.895-5.838L485.65 640l2.84-8.658 7.325 6.28 3.826-12.51c4.26-2.413 8.266-7.07 8.266-14.491 0-6.641.4-12.438.838-17.213 4.848 2.069 10.813 3.823 17.392 3.823 30.915 0 62.2-25.685 62.2-74.756 0-11.556 3.06-29.705 3.06-32.752l-2.275 1.786 1.453-13.62-6.083 4.67-1.03-8.792-3.763 2.136-1.739-7.268-2.879 1.494-2.886-8.983-2.32 1.78-4.528-12.37-5.126 7.582-8.773-13.333-2.903 18.797-1.358-.714s1.448-10.98.684-24.292l17.441-24.385v4.698c39.07-23.167 76.31-22.277 90.82-40.553l4.345-.578c25.832 5.438 31.424 1.705 42.205.596l15.508.733c-8.527 13.245-26.542 31.598-26.542 31.598s43.272-1.912 63.947-24.697c0 0 16.347-1.579 20.137-8.083l24.197-41.564c1.589-2.93 2.132-6.432 1.224-9.651l-5.19-18.516zm-248.703 232.68c0 13.39-7.877 22.383-19.61 22.383-6.132 0-12.704-5.098-16.392-8.648 0 0 .413-7.275 2.841-13.059 7.032-12.582 19.794-29.96 22.034-42.287 3.557 7.327 11.127 19.084 11.127 41.611"/><path fill="#041E42" d="m793.487 328.864-5.19-18.519c-.565-2.02-2.67-4.205-4.67-4.837l-12.014-3.802 4.87-8.437c1.052-1.821 1.18-4.867.287-6.767l-9.513-20.191c-.742-1.585-2.745-3.244-4.438-3.696l-18.263-4.794 3.242-7.405c.699-1.608.335-3.99-.82-5.318l-17.167-19.61c-1.15-1.319-3.524-2.481-5.274-2.574l-18.73-.983 1.951-6.28c.523-1.669-.166-3.927-1.552-5.002l-21.963-17.237c-2.2-1.729-6.271-2.8-9.044-2.38l-23.82 3.632c-1.388.204-2.868 1.472-3.291 2.81l-7.603 23.94c-11.706-16.15-24.834-13.957-27.332-13.356-.696-4.749-2.886-10.628-8.471-16.337l12.14-1.693 1.014-4.514-17.425 2.426a53.013 53.013 0 0 0-6.366-4.203l7.021-7.778c-1.379-1.675-2.603-3.609-3.65-5.56l25.203-6.267 1.034-4.594-28.116 6.99c-2.066-4.71-3.112-8.725-3.112-8.725l15.007 2.868c-3.415-3.419-4.801-9.864-5.147-16.912l27.28-10.654 1.118-5.005-28.487 11.123c.103-12.751 2.854-25.846 2.854-25.846l-4.367-3.415 30.88-66.407-47.32 1.35-34.89-4.892s-19.11-11.841-57.59-18.002l-11.76-11.074-11.765 11.074c-38.48 6.16-57.595 18.002-57.595 18.002l-34.894 4.892-47.316-1.35 30.875 66.407-4.36 3.415s2.757 13.095 2.858 25.846L329.31 128.1l1.122 5.005 27.278 10.654c-.341 7.048-1.728 13.493-5.141 16.912l15-2.868s-1.044 4.015-3.107 8.724l-28.12-6.989 1.026 4.594 25.21 6.262c-1.05 1.956-2.266 3.89-3.652 5.565l7.018 7.778c-2.41 1.356-4.441 2.778-6.299 4.213l-17.488-2.436 1.013 4.515 12.17 1.692c-12.52 12.804-7.958 26.438-7.958 26.438-15.924 1.238-24.977 12.373-24.977 12.373l-10.494-33.058c-.425-1.338-1.906-2.606-3.293-2.81l-23.822-3.632c-2.773-.42-6.845.651-9.048 2.38l-21.954 17.237c-1.378 1.075-2.082 3.333-1.562 5.003l1.96 6.279-18.73.983c-1.746.093-4.127 1.255-5.277 2.573l-17.17 19.611c-1.152 1.327-1.52 3.71-.82 5.318l3.25 7.405-18.268 4.794c-1.692.452-3.688 2.11-4.435 3.696l-9.517 20.191c-.89 1.9-.767 4.946.282 6.767l4.872 8.437-12.006 3.802c-2.003.632-4.11 2.818-4.676 4.838l-5.184 18.518c-.285 1.003-.09 2.588.444 3.49l23.928 41.116s3.066 3.939 17.11 4.904c15.577 18.038 39.382 21.374 39.382 21.374s-12.066-13.036-18.287-27.661c4.78-.395 20.746-1.672 28.226-1.672 8.854 0 15.273 5.763 41.884-.71l8.738 1.172c13.01 18.149 38.373 16.253 70.884 33.556v-4.964l5.177 1.01s16.587 20.95 28.014 42.355c0 0-4.265 54.711 18.734 70.784 0 0 2.533 2.453.31 9.571-2.39 7.654-2.73 14.605-5.95 18.813-3.223 4.22-3.965 15.081 1.716 19.717 0 0-.07 2.619 2.323 4.322 0 0 1.07-2.155 1.325-3.447 0 0 1.027-.031 1.872-.33 0 0 .84 1.478 3.87 2.543 0 0 .16 2.48 2.275 4.01 0 0 1.073-2.227 1.358-3.447 0 0 3.16.26 5.284-2.291 0 0 .569.307 1.634.526 0 0 .428 2.025 2.333 4.094 0 0 1.174-2.187 1.48-3.838 0 0 3.008-.068 4.597-2.204 0 0 .434.067.96.018 0 0 .574 1.91 2.31 3.8 0 0 1.329-2.742 1.738-4.72 0 0 4.547-1.378 4.547-4.869 0-3.48-2.233-13.795-2.233-13.795l2.695 3.821s2.403-6.013-3.827-13.291c-1.554-11.625-5.654-19.065-5.654-19.065s3.708-3.72 4.512-5.37c0 0 4.52 20.712 15.403 40.025l-4.894 24.885s-3.69 5.212-7.136 12.954c0 0-7.528 4.07-7.283 12.507l3.431-3.15s-4.778 11.155.377 17.102c0 0-.67 4.184 2.382 6.806 0 0 .85-2.155 1.3-3.75 0 0 1.01.295 1.62-.316 0 0 2.231 2.587 4.334 3.826 0 0-.008 3.544 2.415 5.557 0 0 .976-2.338 1.364-4.136 0 0 1.682.322 2.968-.957 0 0 1.689 1.04 3.345 1.398 0 0 .088 2.095 2.292 4.308 0 0 1.025-2.476 1.356-4.03 0 0 3.007-.139 4.08-1.808l1.96.132s.365 2.51 2.266 4.153c0 0 1.051-2.358 1.42-4.543 0 0 6.723-1.006 6.723-8.529 0-15.665 2.075-27.274 2.075-30.133 0 0 10.841 8.775 24.115 8.775 25.212 0 54.24-20.317 54.24-66.788 0-6.542.934-14.664.934-14.664l-2.11 1.67 1.484-13.968-2.465 1.896-1.268-10.784-2.533 1.43-1.83-7.673-2.213 1.146-2.305-7.177-1.948 1.493-2.9-7.938-3.103 4.584-3.961-6.037-1.45 9.38-2.968-1.547-.354 9.847-3.307-1.259.173 9.043-2.633-.625 4.053 12.311-2.651-.15 4.026 8.27s4.178 12.568 4.178 29.152c0 18.701-12.424 30.339-27.576 30.339-12.937 0-24.589-13.586-24.589-13.586s.483-14.197 4.283-20.29c3.809-6.097 17.932-27.164 20.428-38.118 2.505-10.946 14.006-17.29 12.082-63.082l23.955-33.539 9.463-.536v3.588c32.502-17.305 65.772-16.624 78.784-34.773l8.74-1.172c26.611 6.473 33.03.71 41.886.71 7.472 0 23.45 1.277 28.22 1.671-6.22 14.626-18.285 27.662-18.285 27.662s23.804-3.336 39.386-21.374c14.045-.965 17.105-4.905 17.105-4.905l23.935-41.115c.53-.903.729-2.487.445-3.49zm-556.139 64.114c-26.457-7.953-38.129-32.088-38.668-44.417 8.042.07 21.132 6.045 23.24 9.331.726 15.853 12.651 31.63 15.428 35.086zm-21.555-85.909c18.276 2.863 25.815 13.79 25.815 13.79-1.14 23.352 11.652 43.48 11.652 43.48s-35.69-15.208-37.466-57.27zm35.822-30.334c19 6.655 23.97 16.972 23.97 16.972-3.426 24.435 7.887 42.811 7.887 42.811s-36.216-18.662-31.857-59.783zm37.72-29.13c18.166 6.274 22.574 20.079 22.574 20.079-6.795 17.706 2.103 45.151 2.103 45.151s-30.887-23.746-24.677-65.23zm62.378 96.87s2.42-18.103-10.773-48.907c19.619 0 20.19 10.237 20.19 13.018 0 26.503-9.417 35.888-9.417 35.888zM551.98 573.93c3.306-2.967 6.419-6.752 9.07-11.56l1.145-8.073 2.132 6.215.685-16.248 2.965 10.108 2.437-12.538 1.001 8.16 4.198-9.187c-3.727 16.49-11.803 28.327-21.204 35.878-9.801 7.863-21.031 11.094-30.292 10.036l-3.44-2.105s17.311 1.932 31.303-10.686zm68.495-517.366-23.86 50.324-2.996-2.199 7.365-12.788-9.26 1.318 9.846-11.114-2.869-3.937-20.88 9.149-2.018-2.898s22.66-9.723 44.672-27.855zm-110.927 64.313c1.659 2.758 5.126 4.495 8.98 4.18 5.135-.44 9.006-4.374 8.632-8.8a7.263 7.263 0 0 0-1.144-3.297l2.877-.615a8.77 8.77 0 0 1 1.153 3.662c.474 5.672-4.597 10.716-11.333 11.27-3.923.338-7.537-.932-9.972-3.157l.807-3.243zm-26.328 78.127c13.038-10.854 21.708-24.105 21.708-24.105l19.3-18.918 2.19 1.755-7.607 8.431s1.909 1.481 4.152 3.997l-4.917 1.923c-.833-.753-1.779-1.094-2.56-.753-1.333.55-1.683 2.716-.8 4.856.892 2.144 2.684 3.437 4.015 2.886.969-.407 1.41-1.68 1.237-3.16l5.756-2.249c1.766 2.607 3.315 5.753 3.898 9.26l-11.693 2.898c-.466-.662-1.076-1.091-1.744-1.091-1.434 0-2.606 1.875-2.606 4.188 0 2.316 1.172 4.197 2.606 4.197 1.206 0 2.222-1.339 2.508-3.142l11.076-2.754c-.174 4.233-1.095 7.9-2.702 10.949l-9.983 1.387c-.191-.646-.555-1.149-1.088-1.376-1.31-.579-3.131.682-4.052 2.81-.93 2.12-.604 4.307.72 4.885 1.088.467 2.521-.323 3.504-1.816l7.2-1c-3.848 3.559-9.256 5.514-16.112 5.514-14.527 0-24.118-6.565-24.118-6.565l.112-3.007zm8.186 26.856s-3.764-6.53-3.764-10.061c0-1.622 6.047-3.57 6.203-1.966.652 6.964-2.439 12.027-2.439 12.027zm.158 56.415c0 1.172-4.627 1.14-4.627 0 0-3.953 2.395-6.36 2.395-6.36s2.232 3.194 2.232 6.36zm10.148-23.202s2.986 8.4.744 21.019c-.57 3.129-8.649 3.936-8.649 2.239 0-2.156 4.38-8.164 7.905-23.258zm-1.149-18.229s1.681-6.594-1.71-25.593c2.586-2.587 11.242-2.245 11.997 0-2.89 19.537-10.287 25.593-10.287 25.593zm-14.12-25.37c0 3.507-2.608 8.602-2.608 8.602s-2.703-2.85-2.703-8.825c0-1.497 5.31-1.593 5.31.223zm-3.366 60.707s2.018 2.928 2.227 6.417c0 1.03-4.622.92-4.622-.107.226-4.57 2.395-6.31 2.395-6.31zm-4.203-60.93c0 5.976-2.71 8.825-2.71 8.825s-2.608-5.095-2.608-8.602c0-1.816 5.318-1.72 5.318-.224zm.452 67.24c0 1.026-4.63 1.136-4.63.107.211-3.49 2.235-6.418 2.235-6.418s2.167 1.742 2.395 6.31zm-2.544-83.487.106 3.007s-9.584 6.566-24.106 6.566c-6.857 0-12.275-1.956-16.12-5.511l7.197.996c.988 1.493 2.415 2.283 3.506 1.816 1.321-.578 1.646-2.764.729-4.885-.933-2.128-2.746-3.389-4.065-2.81-.532.228-.895.73-1.086 1.376l-9.98-1.387c-1.613-3.057-2.533-6.72-2.709-10.955l11.078 2.76c.29 1.803 1.3 3.142 2.51 3.142 1.441 0 2.605-1.88 2.605-4.197 0-2.313-1.164-4.188-2.606-4.188-.67 0-1.277.43-1.737 1.09l-11.703-2.896c.585-3.508 2.13-6.654 3.9-9.26l5.756 2.249c-.17 1.48.274 2.753 1.24 3.16 1.333.55 3.123-.743 4.016-2.886.892-2.14.534-4.308-.797-4.857-.783-.34-1.73 0-2.56.753l-4.92-1.923c2.23-2.515 4.153-3.996 4.153-3.996l-7.635-8.414h.001l2.22-1.772 19.294 18.917s8.673 13.251 21.713 24.105zm-17.346 41.84s-7.396-6.056-10.29-25.593c.76-2.245 9.413-2.587 11.994 0-3.388 18.999-1.704 25.593-1.704 25.593zm-1.14 18.23c3.52 15.093 7.904 21.101 7.904 23.257 0 1.697-8.077.89-8.65-2.24-2.245-12.619.745-21.018.745-21.018zm7.848-45.241c.167-1.603 6.21.344 6.21 1.966 0 3.532-3.758 10.061-3.758 10.061s-3.093-5.063-2.452-12.027zm4.522 62.082s2.391 2.407 2.391 6.36c0 1.14-4.613 1.172-4.613 0 0-3.166 2.222-6.36 2.222-6.36zm-40.716-159.908a8.87 8.87 0 0 1 1.156-3.662l2.89.615a7.032 7.032 0 0 0-1.155 3.296c-.366 4.427 3.495 8.362 8.637 8.801 3.845.315 7.322-1.422 8.98-4.18l.802 3.243c-2.436 2.225-6.05 3.495-9.973 3.157-6.733-.554-11.81-5.598-11.337-11.27zm1.11 141.178 1.561-6.23 6.552 11.532 1.968-4.684v-.004l.526-1.227 5.919 7.157.003.01c-1.275 12.614-1.155 26.734 19.265 26.734 3.938 0 13.146-1.18 13.146-1.18s9.216 1.18 13.147 1.18c20.422 0 20.542-14.12 19.267-26.734l5.929-7.164 2.488 5.917 6.55-11.536 1.552 6.231 3.77-6.762c-4.22 18.95-9.898 36.973-15.66 44.818l-4.086-5.88s-3.582 11-9.395 16.803l-5.701-6.535-6.108 10.447-5.091-7.567-6.658 11.237-6.667-11.237-5.088 7.567-6.108-10.447-5.706 6.535c-5.805-5.803-9.392-16.802-9.392-16.802l-4.088 5.879c-5.764-7.848-11.445-25.88-15.664-44.838l3.768 6.78zm-91.54-200.621c22.011 18.132 44.679 27.856 44.679 27.856l-2.023 2.897-20.879-9.148-2.86 3.936 9.838 11.114-9.264-1.318 7.373 12.789-3 2.198-23.863-50.324zm23.135 89.123c.047-1.456.05-2.991.017-4.55l53.406 20.843a62.493 62.493 0 0 0-2.151 3.739l-51.272-20.032zm4.975 25.97a64.6 64.6 0 0 0 1.846-3.884l39.901 9.924-.747 4.156-41-10.196zm15.89 23.996-4.548-5.004 30.202 4.202v.005h.003a33.792 33.792 0 0 0 1.409 4.565l-27.066-3.768zm72.786 310.014-5.2 7.863-3.437-.552-9.818-27.664 6.084 2.036-6.95-12.082 8.507 2.859-6.644-12.34 7.74 3.633-2.462-14.29 10.93 14.166 7.697 13.897-6.447 22.474zm14.03-15.247 6.297-10.843a1418.961 1418.961 0 0 1 1.136 35.896c-4.656-10.8-7.433-25.053-7.433-25.053zm48.947 10.515-23.699 42.725-4.98-1.671 8.465-27.974 3.455-1.986-8.86-18.108 6.599-.287-5.3-10.799h7.943l-6.283-10.49 27.65-34.02c4.172 10.213-4.99 62.61-4.99 62.61zm18.774-147.18-3.501-12.779-16.532 33.734-4.36-9.976-17.46 29.305-3.113-9.352-13.086 21.415-13.09-21.415-3.121 9.352-17.463-29.305-4.353 9.976-16.534-33.734-3.494 12.778-33.587-64.452 37.081 38.037-13.704-34.293 21.195 19.951-2.618-22.65s6.702 13.993 16.632 24.851l1.44-5.925s7.12 10.636 11.42 13.092l2.712-5.795 7.681 9.138 2.904-4.779 6.892 9.751 6.898-9.75 2.895 4.778 7.688-9.138 2.712 5.795c4.301-2.456 11.423-13.092 11.423-13.092l1.437 5.925c9.927-10.858 16.63-24.852 16.63-24.852l-2.61 22.652 21.187-19.952-13.706 34.293 37.086-38.042-33.581 64.457zm70.223-9.28s-9.41-9.386-9.41-35.889c0-2.781.568-13.018 20.184-13.018-13.187 30.804-10.774 48.906-10.774 48.906zm37.705-31.64s8.899-27.444 2.103-45.151c0 0 4.412-13.805 22.58-20.08 6.203 41.485-24.683 65.231-24.683 65.231zm30.537 23.683s11.316-18.376 7.889-42.811c0 0 4.973-10.317 23.975-16.972 4.355 41.12-31.864 59.783-31.864 59.783zm30.219 27.821s12.79-20.128 11.648-43.48c0 0 7.534-10.927 25.811-13.79-1.775 42.062-37.46 57.27-37.46 57.27zm15.906 28.64c2.777-3.458 14.705-19.234 15.432-35.087 2.108-3.286 15.193-9.261 23.245-9.331-.547 12.33-12.22 36.464-38.677 44.417z"/><g fill="#C69214"><path d="M644.284 267.788c6.078-19.95 29.293-24.986 29.293-24.986 2.773 14.3 1.6 26.63-1.588 37.055 3.682-1.165 6.25-2.878 6.25-2.878l23.669-61.935-19.656-16.306-15.82 2.518-7.656 24.093 2.588 5.938s8.012-.454 15.645 1.27c0 0 1.711 10.978 0 17.763 0 0-1.15-8.737-2.96-12.692-13.553 1.293-32.358 19.2-32.358 28.581 0 5.396 3.357 9.443 4.98 11.077-.412-3.353-1.167-6.57-2.387-9.498M701.408 259.905s6.565-.577 15.738 2.272c0 0 .338 12.303-1.286 17.721 0 0-.754-7.866-2.157-12.908-12.752-.52-31.922 13.032-32.042 24.423 7.84-14.308 29.818-19.564 29.818-19.564 1.859 11.81.822 21.947-1.937 30.59 2.265-.08 5.815-.817 5.815-.817l27.435-53.369-16.377-18.058-15.487 1.342-11.04 24.687 1.52 3.681zM740.065 288.716s10.1 1.866 15.682 4.297c0 0-1.367 10.065-3.798 17.36 0 0-.49-8.044-1.377-13.591-9.799-2.257-37.247 11.575-37.247 22.246 0 3.288.855 5.434 1.406 6.492.079-1.883.116-3.775.016-5.699 9.993-15.378 33.244-16.972 33.244-16.972 0 12.28-2.506 22.501-6.307 30.968 3.264-.028 5.967-1.509 5.967-1.509l23.824-41.881-8.881-19.846-15.65-1.468-7.405 15.528.526 4.075zM769.445 312.124 760 327.463l.312 4.084s5.415 1.014 12.911 4.251c0 0-1.792 10.464-5.953 17.136 0 0 1.51-6.05-.37-11.92-18.03-3.27-33.837 12.472-33.837 16.31 0 1.794.643 3.275 1.042 4.054.246-1.548.42-3.089.42-4.605 11.872-12.907 30.547-11.837 30.547-11.837-.724 11.555-4.161 20.698-8.944 27.958 6.202-.903 7.883-2.206 7.883-2.206l23.602-40.496-4.428-15.807-13.741-2.26zM621.42 339.168l-2.514-5.637s-3.306 1.096-6.667.087c-1.333 13.542 1.012 20.88 1.012 20.88s-13.5-7.446-17.088-32.922l-1.668-1.103-3.688-6.214-9.113 10.289 5.747-.826-30.488 34.655 5.59 14.981 7.071 9.763 13.137-6.352-8.7-8.704 20.52 2.49-8.711-11.195 22.333 6.625 14.02-5.304-6.2-4.628 11.336.43-4.48-6.82 14.852 3.702-16.301-14.197zM308.53 249.213s-11.353-10.68-22.87-12.258c0 0-11.305 18.515 1.472 39.763-2.49-9.737-3.208-21.033-.707-33.916 0 0 23.214 5.032 29.292 24.989-1.196 2.871-1.939 6.018-2.362 9.297 10.583-6.773 13.09-16.593 13.09-16.593l-16.466-53.089-27.405-2.73-5.138 3.077 8.248 20.268s14.457 4.931 22.846 21.192M268.556 274.796s-14.127-9.215-22.979-8.534c0 0-6 19.072 4.334 34.26-2.32-8.23-3.112-17.733-1.381-28.676 0 0 23.158 5.54 30.41 20.706 3.285-3.79 4.147-8.87 4.147-8.87-5.227-1.89-6.825-4.686-6.825-4.686l-17.574-45.119-20.888.917-3.58 4.965 8.184 18.353s14.525 2.21 26.152 16.684M233.542 304.469s-13.487-7.55-23.483-7.55c0 0-4.346 19.698 6.692 33.106-2.902-7.686-4.734-16.674-4.734-27.176 0 0 23.249 1.597 33.238 16.968a65.7 65.7 0 0 0 0 5.453c1.296-1.251 3.468-3.652 3.468-5.817 0-4.848-1.12-12.163-1.12-12.163-5.978-.506-7.393-2.187-7.393-2.187l-19.486-36.61-18.957 4.697-2.248 4.704 7.47 12.477s13.682.209 26.553 14.098M225.475 356.773c0 2.092.295 4.246.755 6.395.782-.565 1.974-1.78 1.974-3.906 0-1.4-.647-7.824-.971-10.86a67.138 67.138 0 0 1-6.216-9.196c-11.048-.324-13.735-4.11-13.735-4.11l-13.631-24.283-11.546 3.98-1.82 4.813 8.342 13.298s16.726 1.112 26.41 11.4c0 0-9.38-4.014-22.85-4.014-1.593 8.38 4.134 28.572 11.721 32.674-4.8-7.268-8.251-16.437-8.981-28.028 0 0 18.677-1.07 30.548 11.837M378.307 324.548l-9.117-10.289-3.683 6.214-1.665 1.103c-3.591 25.476-17.085 32.921-17.085 32.921s2.382-7.53.945-21.384l-24.222 25.935 21.07-1.419-5.132 7.644 18.89-2.487-6.219 8.085 23.001 9.319 12.862-11.189 8.706-18.265-24.101-27.014 5.75.826zM517.947 387.976l-21.602 26.635-3.316-8.09L480 422.403l-9.963-15.884-3.67 8.09-23-26.634 13.244 23.853-20.096-14.096 20.58 24.5-15.352-7.096 19.268 20.925-10.293-2.133 17.168 20.74-4.67-.463 16.784 20.874 16.793-20.874-4.674.462 17.166-20.74-10.29 2.134 46.001-62.317-24.607 22.373zM448.273 530.183l2.59 11.125-23.045 10.502-.046 3.127 4.337 1.563 2.999-3.707 1.253 4.935 5.386.733 2.077-4.891 2.492 3.413 5.797-.958.248-5.593 3.707 3.483 4.177-2.373-7.644-26.686zM489.358 594.783l-25.037 8.753.073 2.768 3.233 2.632 3.435-3.942.448 6.075 5.047.596 2.611-4.997 1.592 5.18 5.387-.415 1.305-4.765 3.118 3.532 4.179-2.085.222-38.891-6.44 9.465z"/><path d="m293.881 252.638-2.693-1.538c-1.25 16.168 3.287 39.983 16.348 52.418-7.464-11.191-12.411-19.171-13.655-50.88M253.252 280.392c.683 16.196 9.82 39.169 24.253 49.981-8.734-10.248-16.544-17.513-21.531-48.857l-2.722-1.124zM221.627 310.787l-2.878-.657c2.394 16.043 12.968 39.667 28.47 48.88-9.768-9.244-17.316-17.587-25.592-48.223M359.466 307.593l-2.928-3.715c1.226 5.314-1.176 30.135-3.284 35.558 5.07-13.015 6.482-27.456 6.212-31.843M203.586 351.84l-2.818-.55c4.798 14.633 15.4 32.089 31.385 38.231-10.63-7.107-15.909-10.306-28.567-37.681M654.502 262.978l-2.192 2.487c1.24 19.888 2.018 29.524-3.986 41.573 11.389-13.987 7.099-37.85 6.178-44.06M710.127 360.483c13.814-11.584 14.097-35.822 14.361-42.088l-2.612 2.012c-2.532 19.775-3.599 29.384-11.749 40.076M600.59 307.586c-.276 4.383 1.128 18.824 6.211 31.837-2.122-5.423-4.517-30.233-3.293-35.543l-2.918 3.706zM724.798 391.002c14.342-7.6 19.153-28.892 20.555-34.35l-2.68 1.28c-5.946 16.936-8.687 25.189-17.875 33.07M690.834 289.694l-2.47 2.185c-1.21 19.901-1.828 28.719-9.244 39.936 13.008-12.485 11.86-35.855 11.714-42.121"/><path d="M668.785 342.87c3.377-4.917 10.08-16.349 12.047-31.713v-.001c.485-3.722.692-7.659.491-11.806-7.13-4.409-9.108-13.983-9.108-13.983-.844.315-1.656.554-2.468.787-2.081 5.086-4.624 9.628-7.342 13.648h-.001c-9.427 13.909-21.31 21.645-23.393 22.928 0 0 .044-.118.125-.325.839-2.16 5.83-15.497 7.435-29.915.33-2.96.516-5.95.488-8.917-5.236-3.133-9.566-7.727-13.303-12.266l-5.778 13.147-18.303-5.89-12.553 10.09-4.67 18.627 2.94 4.99c-.044-1.221-.115-2.399-.115-3.685 0-11.142 9.14-17.71 29.229-16.617-6.754 14.383-10.053 26.525-11.562 36.201l1.284 1.04 8.446-1.463 3.749 8.39 29.514 25.71c7.656 6.67 28.947 5.813 28.947 5.813l10.554-3.088 6.168-7.722 4.482.72a93.275 93.275 0 0 0 3.508-8.207l-.002-.004c1.524-4.024 2.951-8.694 3.935-13.767l-.921-5.211c-4.67-5.269-6.627-5.511-6.272-19.979-3.09 6.344-7.09 11.703-11.372 16.189l.002.003c-9.517 9.973-20.325 15.566-25.339 17.805v-.002c-1.77.792-2.843 1.184-2.843 1.184s.795-.978 1.996-2.711M291.225 342.87c1.192 1.734 1.995 2.711 1.995 2.711s-1.068-.392-2.843-1.181l.002-.003c-5.019-2.242-15.826-7.82-25.346-17.799h-.001c-4.272-4.48-8.272-9.85-11.365-16.187.36 14.459-1.605 14.704-6.277 19.97l-.911 5.219c.983 5.072 2.402 9.733 3.924 13.776a95.597 95.597 0 0 0 3.507 8.194l4.487-.72h.004l6.166 7.722 10.554 3.088s21.287.856 28.937-5.813l29.52-25.71 3.75-8.39 8.449 1.462 1.28-1.04c-1.509-9.675-4.812-21.812-11.564-36.2 20.097-1.089 29.232 5.481 29.232 16.617 0 1.286-.076 2.468-.116 3.69l2.947-4.995-4.676-18.622-12.557-10.095-18.304 5.89-5.775-13.147c-3.729 4.54-8.057 9.133-13.305 12.271a76.415 76.415 0 0 0 .492 8.911v.001c1.609 14.418 6.594 27.755 7.432 29.915l.126.33-.352-.223c-2.82-1.787-14.04-9.438-23.04-22.71a75.376 75.376 0 0 1-7.34-13.644 36.41 36.41 0 0 1-2.47-.788s-1.973 9.569-9.11 13.984c-.201 4.142.013 8.083.486 11.803 1.975 15.364 8.672 26.796 12.06 31.713M443.936 487.35l-6.084-2.036 9.817 27.664 3.435.552-5.32-21.98 6.583 4.308-5.259-13.09 5.806 2.09-3.617-10.126 4.081 1.57-9.251-21.172 2.461 14.29-7.74-3.633 6.65 12.34-8.508-2.859zM514.292 468.548l-5.612-1.907 5.612 12.218-7.165.418 4.671 8.37-7.158.637 4.354 7.662-5.14 1.163 2.804 7.059-4.05 2.368 2.34 7.334-5.306 2.023 1.566 5.291-3.744 3.037 1.074 7.83-3.099 2.812.146 8.797 23.699-42.725s9.162-52.402 4.99-62.618l-9.982 30.23zM570.415 541.834l-2.437 12.538-2.96-10.11-.694 16.25-2.128-6.215-1.142 8.072c-2.661 4.809-5.776 8.594-9.07 11.568l-1.21 3.295 3.636-.547c9.4-7.551 17.483-19.388 21.198-35.873l-4.192 9.182-1.001-8.16z"/><path d="m616.538 219.478-57.972 46.137 3.108-9.355 43.648-45.513s-1.931-12.044-13.089-17.289l-7.97 1.112-45.219 49.76c-8.324 41.458-17.148 55.926-24.7 60.923l-.656-5.004s-6.405 10.402-11.784 15.085l-2.99-7.218-8.436 11.473-3.333-7.5L480 323.582l-7.142-11.493-3.334 7.5-8.438-11.473-2.988 7.218c-5.374-4.683-11.792-15.085-11.792-15.085l-.653 5.004c-7.543-4.997-16.373-19.465-24.692-60.924l-45.212-49.756.145 3.082 40.52 52.995 6.546 15.576-48.94-38.18-3.746 6.862 37.41 52.997-42.397-34.293-3.736 5.138 18.363 23.725-6.79.225 10.89 15.122-5.242.449 17.396 30.18-7.811-39.157 37.089 38.045-13.704-34.293 21.195 19.952-2.618-22.652s6.702 13.994 16.631 24.852l1.44-5.925s7.122 10.636 11.421 13.092l2.711-5.794 7.682 9.137 2.904-4.779 6.892 9.751 6.898-9.75 2.895 4.778 7.688-9.137 2.711 5.794c4.302-2.456 11.424-13.092 11.424-13.092l1.437 5.925c9.927-10.858 16.63-24.851 16.63-24.851l-2.61 22.65 21.187-19.95-13.707 34.292 37.09-38.045-7.806 39.157 17.391-30.18-5.232-.45 10.883-15.121-6.79-.225 24.305-22.346 18.98 6.373 10.18-34.235-17.015-12.79zM397.088 99.147l57.821 12.788 3.896 10.902 8.11 1.249-11.179 8.05 16.162 10.962-.934 1.566-12.159-4.676-4.366 4.676 13.713 10.606-1.237 1.543-9.979-4.668-9.979 8.731 5.303 3.428L480 174.28l27.742-9.977 7.797-5.925-8.103-7.491-14.343 5.925-1.252-1.543 16.533-12.172-4.054-4.053-15.283 5.62-.929-1.567 16.155-10.961-11.17-8.051 8.103-1.248 3.897-10.903 52.212-11.544v3.753l-12.47 5.603-7.482 16.213-28.042 9.143 8.094 8.313-4.668 3.427 11.492 9.138 2.196 1.748.028.022s4.575 2.516 9.12 7.49l61.76-24.111c.23-11.871 2.312-25.65 2.312-25.65l-12.563-9.404 4.479-7.791-12.554 1.795 11.332-12.809-14.261 6.26-32.37-50.894c-24.097-11.951-54.279-15.982-54.279-15.982L480 17.787l-6.12 5.765 4.877-1.088 8.102 8.111c20.746 4.016 26.815 8.719 26.815 8.719s-12.153-1.115-19.936-1.115c-10.356 0-13.738 1.396-13.738 3.028v8.428c0 4.906 3.743 8.363 3.743 8.363l-5.61 12.479 5.61 7.479-1.256 40.829 4.364 4.991-6.85 11.79-6.855-11.79 4.367-4.991-3.116-38.967-8.732-7.475 7.48-12.472-6.857-12.464L455.07 60.5l3.111 4.354-6.231 23.07 10.602 17.46-2.807 3.427-8.732-9.664-47.695-3.742-1.553-5.293 10.208-8.42-3.35-4.202-14.34 10.123 2.805 11.534zm185.48 24.94-11.227 23.079-3.744 1.541 7.17-22.436-12.155-15.584 7.17-4.062 12.787 17.461zm-80.745-59.233 3.124-4.354 19.007 26.13 9.036 7.527-24.005 4.99-8.728 9.664-2.806-3.426 10.601-17.46-6.23-23.071z"/><path d="m389.915 143.101-4.673-16.828 15.896-15.9 10.28 6.235 8.734 22.133 9.976 3.42v3.754s-7.774 6.071-14.047 16.065l8.337 3.25c4.552-4.97 9.137-7.477 9.137-7.477l2.221-1.772 11.49-9.133-4.67-3.438 8.092-8.304-28.04-9.143-7.481-16.217-12.473-5.608-6.231-.317-19.02 20.267 8.731 17.462 3.741 1.551zM421.606 168.703l-7.681-2.984c-1.916 3.614-3.542 7.623-4.545 11.975l7.106 1.764c1.086-4.184 2.974-7.767 5.12-10.755M408.277 187.004c0 2.869.358 5.483.897 7.852l7.487 1.035c-.73-2.599-1.152-5.514-1.152-8.812 0-1.199.072-2.346.197-3.48l-7.071-1.748a38.889 38.889 0 0 0-.358 5.153M431.686 227.893l9.453 29.906.527-1.227 5.924 7.164-13.105-37.409-6.23-5.606-.622-3.745 17.457 5.618 1.978-1.007-.945-5.093s-20.094-.58-27.716-15.98l-7.822-1.09c2.596 6.704 6.448 10.393 6.448 10.393 4.162 11.694 14.653 18.076 14.653 18.076M525.509 226.33l-13.096 37.409 5.929-7.164 2.488 5.917 6.55-11.536 1.552 6.231 3.78-6.782 1.71-8.41 42.062-46.345-34.891 4.858c-7.634 15.395-27.713 15.986-27.713 15.986l-.95 5.095 1.98 1.003 17.455-5.615-.62 3.74-6.236 5.613zM594.64 175.649a63.186 63.186 0 0 1-2.27-3.991L544.296 183.6a30.91 30.91 0 0 1 .198 3.475c0 3.316-.443 6.213-1.172 8.822l37.704-5.249 13.615-15zM597.353 145.685l-58.976 23.029c2.152 2.978 4.036 6.565 5.122 10.757l47.04-11.703c-3.855-8.925-4.566-16.263-4.566-16.263l12.34 2.346c-.579-2.145-.864-5.005-.96-8.166M406.906 52.073l-20.5 19.394 6.832 2.457z"/></g><g fill="#C8102E"><path d="M322.245 321.77c.936-11.43-1.646-32.056-1.646-32.056a184.153 184.153 0 0 0-7.168 2.776c1.609 14.418 6.594 27.754 7.432 29.915l1.382-.636zM250.403 349.376a95.597 95.597 0 0 0 3.507 8.194l4.487-.72 27.505-4.43 4.477-8.023c-5.019-2.242-15.826-7.82-25.346-17.799-8.805 12.144-12.96 19.504-14.63 22.778M297.598 299.802c-8.18 4.272-14.305 8.313-18.435 11.355 1.975 15.364 8.672 26.796 12.06 31.713l5.078-9.102 24.336-11.26c-2.083-1.283-13.608-8.797-23.04-22.706M319.224 330.283l-17.484 7.476-4.89 11.328c-1.108 2.57.2 4.079 2.904 3.354l5.65-1.53 15.115-12.995 2.288-5.082c1.252-2.779-.355-3.937-3.583-2.551M669.626 344.4l4.471 8.02 27.509 4.43 4.482.72a93.275 93.275 0 0 0 3.508-8.207c-1.667-3.268-5.828-10.621-14.627-22.772-9.518 9.976-20.33 15.57-25.343 17.809M639.136 322.405c.839-2.16 5.83-15.497 7.435-29.915a187.552 187.552 0 0 0-7.17-2.776s-2.58 20.627-1.65 32.055l1.385.636zM662.404 299.802c-9.427 13.909-20.954 21.423-23.037 22.706l24.336 11.26 5.082 9.102c3.377-4.917 10.08-16.349 12.047-31.713-4.123-3.042-10.25-7.083-18.428-11.355M658.259 337.749l-17.485-7.466c-3.222-1.386-4.828-.222-3.577 2.559l2.28 5.074 15.119 12.995 5.656 1.53c2.7.73 4.01-.784 2.899-3.354l-4.892-11.338zM466.834 178.23c2.95 0 8.017 4.834 8.017 8.88 0 1.381-.762 1.777-.762 1.777l2.997 2.984L480 181.01l2.921 10.86 2.992-2.984s-.765-.396-.765-1.776c0-4.047 5.07-8.881 8.02-8.881 2.267 0 2.675 1.594 2.675 1.594 2.745-2.728 6.613-8.759 6.613-8.759L480 179.664l-22.457-8.599s3.887 6.03 6.615 8.76c0 0 .414-1.595 2.677-1.595M479.999 204.819c-1.526 3.49-8.255 6.476-8.255 6.476l1.005.555s3.551-1.84 7.25.187c3.708-2.026 7.25-.187 7.25-.187l1.008-.555s-6.723-2.987-8.258-6.476M448.968 117.607a4.697 4.697 0 0 0-.125-1.494l-12.146-2.582c-.774.81-1.272 1.816-1.36 2.936-.259 3.053 2.58 5.779 6.35 6.104 3.76.32 7.018-1.91 7.281-4.964M511.162 116.11a4.52 4.52 0 0 0-.124 1.492c.257 3.058 3.514 5.283 7.278 4.968 3.767-.324 6.61-3.048 6.345-6.1-.081-1.123-.58-2.13-1.357-2.94l-12.142 2.58zM565.196 517.526l.454-16.054-3.6 4.651-1.3-24.89-5.35 17.3 3.698-5.276.038 20.472 4.467-5.918z"/><path d="m577.204 500.685-3.81 3.839.877-13.766-4.367 3.521.599-8.957-3.619 3.965-2.4-10.147.213 19.393 2.786-3.395.295 7.293 3.473-4.16-1.56 25.58 4.927-3.832-.994 21.469 2.396-7.541 1.88-20.755-3.133 2.616zM566.375 522.216l-2.887 3.127-1.757-8.031-.927 14.602 3.067-3.15-.1 8.178 3.095-2.907.423 6.795 2.547-13.425-3.37 3.049zM459.46 248.391s2.25 15.404 7.52 27.64c0 0 1.031-2.026 3.442-4.445 0 0 2.136 1.61 3.553 3.414 0 0 1.282-1.724 2.694-3.14 0 0 2.459 1.63 3.33 3.124.88-1.494 3.325-3.125 3.325-3.125 1.425 1.417 2.702 3.141 2.702 3.141 1.42-1.804 3.558-3.414 3.558-3.414 2.402 2.419 3.44 4.445 3.44 4.445 5.266-12.236 7.516-27.64 7.516-27.64 5.594 10.98 5.754 17.871 5.754 17.871s5.354-22.539 8.616-43.67l-1.977-1.001c-.01.09-2.348 19.919-18.714 27.48l.002-.004c.052-.088 6.101-10.404 2.293-28.49l-.001.008c-.005.05-.194 2.014-1.32 4.703a22.124 22.124 0 0 1-4.766 7.095l-3.135-8.049v.001c-.005.009-1.219 2.551-3.168 4.514 0 0-3.12-2.77-4.124-4.804l-.001-.003c-.167.34-.396.7-.657 1.065-1.3 1.819-3.464 3.742-3.464 3.742l-.003-.004c-1.958-1.965-3.166-4.51-3.166-4.51l-3.132 8.048-.004-.004c-5.52-5.523-6.087-11.803-6.087-11.803 0 .006-.002.01-.003.016-3.813 18.154 2.302 28.48 2.302 28.48l-.005-.003c-16.393-7.58-18.71-27.482-18.71-27.482l-.657.334-1.323.67v.003c3.265 21.13 8.61 43.668 8.61 43.668s.174-6.89 5.76-17.87zm20.539-8.659 7.17-8.414-4.33 15.141-1.068 16.657-1.772 5.609-1.77-5.609-1.064-16.657-4.33-15.141 7.164 8.414z"/></g><g fill="#FFF"><path d="M445.521 120.962c.977.08 1.815-.521 1.881-1.333.073-.814-.66-1.544-1.628-1.621-.976-.084-1.82.51-1.882 1.32-.07.819.66 1.549 1.63 1.634M521.966 120.184c.978-.081 1.705-.811 1.636-1.628-.07-.811-.905-1.412-1.884-1.322-.97.079-1.7.814-1.636 1.623.07.81.916 1.412 1.884 1.327M529.871 142l1.88 2.503 13.406-.937 9.972-14.647-5.31-6.247-9.97 15.905zM556.684 95.243l8.103-.924.943-6.867L541.101 70l-2.493 3.738 19.644 16.212z"/></g></svg>