<svg xmlns="http://www.w3.org/2000/svg" viewBox="0 0 960 640" xml:space="preserve"><path fill="#041E42" d="M654.855 504.201c-8.282 0-15.005 6.713-15.005 15.001 0 8.278 6.723 15.001 15.005 15.001s14.995-6.723 14.995-15c0-8.288-6.713-15.002-14.995-15.002zm0 26.783a11.772 11.772 0 0 1-11.782-11.782c0-6.51 5.264-11.774 11.782-11.774 6.51 0 11.78 5.264 11.78 11.774 0 6.512-5.27 11.782-11.78 11.782zm6.164-15.259a5.085 5.085 0 0 0-5.09-5.082H648.7v17.123h3.213v-6.954h2.306l3.246 6.954h3.553l-3.389-7.252a5.095 5.095 0 0 0 3.39-4.789zm-5.09 1.872h-4.015v-3.747h4.015c1.032 0 1.877.839 1.877 1.875a1.878 1.878 0 0 1-1.877 1.872z"/><path fill="#FFC72C" d="M890.097 323.862s-22.423-54.826-22.358-54.658c-1.465-3.74-1.465-3.74-27.102-16.103l-21.097-10.167-13.318-10.257-19.398-24.035-6.38-28.7a10.157 10.157 0 0 0-4.89-6.62l-30.346-17.255-19.08-19.18a10.086 10.086 0 0 0-3.15-2.15l-118.83-51.645a10.157 10.157 0 0 0-6.034-.645L436.317 114.76c-26.735-2.128-55.07-1.363-84.262 2.315a10.149 10.149 0 0 0-8.45 7.146c-.914 3.035-.325 6.257 1.451 8.769L102.99 181.35a10.137 10.137 0 0 0-6.087 3.803L71.23 218.87a10.153 10.153 0 0 0-1.35 9.91 10.153 10.153 0 0 0 7.808 6.255c84.34 13.636 147.047 47.43 167.736 90.399 22.06 45.816 2.093 87.449-17.764 118.6a10.138 10.138 0 0 0-.756 9.52 10.123 10.123 0 0 0 7.478 5.917l98.961 17.872c21.835 18.363 57.715 27.377 90.57 22.464 26.427-3.952 34.588-18.81 37.09-28.535 19.424-8.216 34.843-20.709 45.79-37.298 4.684-7.095 4.053-16.526-1.53-22.935-4.42-5.07-11.128-7.273-17.536-6.179-.429-.63-.882-1.25-1.39-1.832-5.588-6.411-14.843-8.325-22.512-4.657a112.477 112.477 0 0 1-6.148 2.71c14.676-16.608 35.976-28.333 53.034-34.116 25.194-8.541 80.148-22.742 120.468-30.51-18.03 55.721-72.024 118.056-134.134 153.084l-46.883 26.44a10.15 10.15 0 0 0-4.487 12.477 10.154 10.154 0 0 0 1.876 3.084l-14.93 6.831a10.147 10.147 0 0 0 5.592 19.283l59.256-8.08C619.23 532.97 719.553 463.1 764.785 402.495c.56.094 1.114.21 1.685.21l27.423-.016c1.769 0 3.512-.463 5.045-1.34 17.303-9.909 35.343-15.593 49.499-15.593 3.883 0 7.426-2.217 9.124-5.708 8.697-17.875 20.832-36.027 30.197-45.17 2.956-2.886 3.904-7.19 2.339-11.016z"/><path fill="#041E42" d="M884.374 326.142c-5.047-12.68-21.591-52.803-22.368-54.692-.56-1.492-1.293-1.847-45.716-23.248l-14.404-11.089-20.762-25.725-6.693-30.11a3.987 3.987 0 0 0-1.92-2.602l-31.079-17.674-19.668-19.77a4.003 4.003 0 0 0-1.238-.845L601.693 88.74a3.95 3.95 0 0 0-2.373-.254l-162.574 32.468c-26.583-2.185-54.816-1.434-83.919 2.23a3.991 3.991 0 0 0-2.103 6.983l7.527 6.465-254.057 50.757a3.996 3.996 0 0 0-2.391 1.494l-25.673 33.72a3.987 3.987 0 0 0 2.538 6.355c86.331 13.956 150.744 49.025 172.304 93.804 23.378 48.557 2.596 92.085-18.122 124.582a3.993 3.993 0 0 0 2.645 6.07C276.64 460.973 310.442 467.08 336 471.57c20.098 17.74 55.632 26.835 87.002 22.148 25.6-3.83 31.45-18.48 32.664-26.853 19.708-7.695 35.168-19.893 45.985-36.283 3.166-4.793 2.742-11.164-1.033-15.497-3.776-4.336-10.032-5.628-15.205-3.145-.32.152-.641.303-.958.45a12.737 12.737 0 0 0-2.765-5.32c-3.77-4.327-10.024-5.622-15.21-3.142-6 2.87-14.616 6.353-24.244 8.27 13.904-25.617 42.8-43.033 66.495-51.065 27.51-9.323 90.175-25.338 131.152-32.55-15.073 59.487-72.867 128.567-139.815 166.32l-46.88 26.44a3.99 3.99 0 0 0 2.831 7.369l24.483-5.474-45.32 20.736a3.99 3.99 0 0 0 2.198 7.58l59.255-8.08c122.58-16.714 223.012-88.048 266.004-148.458l1.913 1.044c.586.32 1.242.487 1.91.487h.002l27.43-.016c.695 0 1.378-.183 1.982-.528 18.209-10.427 37.367-16.406 52.56-16.406a3.99 3.99 0 0 0 3.588-2.244c8.977-18.452 21.61-37.29 31.432-46.88a3.986 3.986 0 0 0 .918-4.33zm-393.43 97.373c-11.708 17.742-29.228 28.969-47.455 34.053-.952-2.45-2.567-5.116-5.152-7.95-5.568-6.103-9.474-12.182-10.518-19.262 16.847 6.2 38.005 5.173 63.126-6.84z"/><g fill="#FFF"><path d="M868.89 329.154c-13.418-24.447-47.194-38.524-70.206-39.034a112.073 112.073 0 0 0 22.345-8.968c3.671 4.84 9.467 7.975 16.008 7.975 7.741 0 14.452-4.378 17.817-10.789l-.025-.063-41.021-19.242-.312.194c-24.456 14.352-56.78 17.298-86.99 2.93-39.672 0-59.662 7.464-92.486 36.108 17.617-19.646 35.807-39.386 35.807-39.386l5.547-32.731c7.263 16.095 23.438 27.304 42.243 27.304a46.094 46.094 0 0 0 26.453-8.303c.013-.003.023-.007.036-.012 17.029 14.412 46.501 19.6 64.442 11.429l-11.528-9.583-11.01 5.87 6.863-10.29-4.218-4.77-14.875 7.658 9.28-14.124-3.189-3.748-12.583 5.562 7.209-12.262-5.07-7.745c-4.765 17.827-16.555 22.986-39.026 21.88a99.462 99.462 0 0 0-.717-9.084 22.286 22.286 0 0 1-11.994 3.488c-12.374 0-22.402-10.03-22.402-22.402 0-4.02 1.067-7.72 2.925-10.979-6.455 0-21.853-.03-23.24 0-19.069.396-33.844-21.044-30.409-40.966 4.966 26.897 29.004 32.051 53.416 32.051 32.047 0 42.48 15.336 44.208 36.103 10.315 3.684 21.518 3.015 27.238-10.091l-4.78-24.889-30.087-14.592-20.634-19.319-115.714-46.807s-47.615 10.552-113.91 25.274c18.701 4.859 35.339 11.668 49.018 20.467 4.497 12.602 4.157 25.334-1.1 38.019-.478 1.158-.97 2.482-1.446 3.454-46.676 3.28-74.955 28.82-93.93 66.72a154.436 154.436 0 0 1-17.635 4.145l27.742-64.976s-7.63 1.965-15.395 1.083c-22.122-2.511-38.224-12.993-50.87-33.247-.811-2.78-2.166-7.419-3.466-11.866-102.652 22.836-213.286 47.519-265.084 59.31 29.678 2.281 60.809 11.155 88.824 25.324a111.22 111.22 0 0 1 24.013-40.396l145.438-32.43 1.923 5.272c7.941 12.718 17.452 22.154 28.68 28.516a148.128 148.128 0 0 0-.44 4.57c-30.54 7.494-53.364 25.517-67.68 43.734-26.058 33.153-34.293 78.59-18.81 120.167-31.396-49-24.287-112.99 15.855-153.925l.032-.187-.409-14.564c-20.47 9.082-36.356 22.85-47.28 36.748-10.663 13.567-18.338 29.194-22.627 45.77 35.383 38.24 49.953 89.62 18.983 147.137 18.91 3.805 36.814 7.386 56.456 11.419 12.57 19.363 48.567 35.836 85.852 29.873 8.847-1.415 21.372-5.836 10.859-17.362-16.123-17.68-19.085-36.025.763-63.736 10.495-14.651 42.275-36.803 71.617-46.75 25.2-8.54 54.057-16.019 74.267-21.058 59.729-14.894 95.73-20.686 137.58-11.224 46.768 10.575 68.37 39.8 67.647 69.828 0 0 3.527-.112 5.474-.246 22.316-12.172 40.783-16.41 55.703-17.406 6.533-11.325 14.212-24.94 24.037-35.83h-.002zM683.676 208.04a3.314 3.314 0 0 1 3.608 2.993c1.272 13.652 10.61 27.87 33.015 26.837a3.315 3.315 0 1 1 .31 6.623c-27.1 1.25-38.446-16.912-39.929-32.844a3.318 3.318 0 0 1 2.996-3.609zm-87.723 42.395c-15.794 17.371-27.809 30.589-41.94 46.133-8.46-2.559-17.398-4.003-26.645-4.2-.546-12.633 4.412-27.008 15.53-40.75-14.75 11.063-23.599 25.27-25.448 41.024a99.05 99.05 0 0 0-18.87 3.309c-3.174-10.493-2.837-23.426 2.004-37.5-8.556 13.107-12.094 26.927-10.286 40.186a98.823 98.823 0 0 0-17.439 8.59c-5.35-8.146-8.653-19.013-8.885-31.971-3.09 13.252-2.209 25.657 2.493 36.293a99.664 99.664 0 0 0-14.304 12.79c-7.01-5.552-13.12-13.893-17.34-24.872 1.46 12.115 5.837 22.401 12.758 30.22a99.389 99.389 0 0 0-9.26 13.79c-21.02-4.086-40.275.541-54.329 7.717-25.573 13.058-43.635 38.798-45.932 68.922-5.424-39.256 17.24-76.789 53.743-90.636l.073-.107s13.46-31.278 16.426-38.372c3.49-8.344 10.108-13.503 21.712-16.525 80.206-20.919 146.071-81.187 104.226-142.675 31.688-7.032 54.499-12.09 62.738-13.916l19.559 9.519c-26.998 10.636-46.114 36.93-46.114 67.707 0 22.151 9.912 41.979 25.53 55.324z"/><path d="M665.947 339.163c1.161-6.74.287-13.208 2.19-18.354-.4-.066-10.744 1.343-14.111 1.79-1.107 4.924-2.661 10.076-3.68 14.037-13.877 53.996-74.386 129.378-144.006 168.64 10.594-2.368 21.016-5.235 31.233-8.517 68.686-45.635 120.715-113.175 128.374-157.596zM438.337 449.619c2.585 2.833 4.2 5.5 5.152 7.949 18.227-5.084 35.747-16.311 47.456-34.053-25.121 12.014-46.279 13.041-63.126 6.841 1.044 7.08 4.95 13.159 10.518 19.263z"/><path d="m713.037 363.221-.072.166c6.151-17.16 5.513-24.43-.353-29.388-5.866-4.958-20.762-5.856-25.13-2.693-6.308 4.572-11.714 11.761-15.686 22.702-17.196 54.254-82.393 126.4-156.882 166.94 85.077-29.514 168.68-96.85 197.552-156.199l.57-1.528zM374.973 133.933l6.604 5.671 7.332 25.082c11.068 17.26 24.571 25.965 43.656 28.131.871.1 1.753.225 2.614.168 7.726-.513 30.773-2.134 30.773-2.134l25.288-26.415s18.575-2.908 34.53-5.309c-11.803-7.14-26.016-12.895-42.05-17.194-3.236 4.216-28.786 40.209-28.786 40.209l18.284-42.757a263.427 263.427 0 0 0-16.013-2.974l-24.763 34.543 15.327-35.844a323.482 323.482 0 0 0-18.906-1.726l-18.913 26.379 11.445-26.76c-14.885-.606-30.44-.315-46.422.93z"/><path d="M751.695 389.096c7.147-10.731 10.381-21.354 9.337-29.67-.67-5.35-8.15-12.75-15.777-13.648-7.461-.878-11.92 3.722-21.552 19.659a147.762 147.762 0 0 1-3.3 6.492c-2.954 6.012-5.84 14.227 2.45 14.227 8.056 0 25.102-13.352 35.246-25.885-40.513 60.717-85.71 100.855-169.635 141.587 63.335-35.583 90.264-56.844 110.853-76.537 21.323-20.397 10.644-30.334-11.943-8.094-9.775 10.781-20.874 21.594-33.081 32.254-40.264 35.16-90.707 62.045-138.916 78.002 103.658-19.67 194.183-79.66 236.318-138.387zM279.358 204.793s-.128-4.536-.321-11.55c-21.751 7.95-38.374 21.812-49.384 35.826a111.656 111.656 0 0 0-12.968 20.883c10.361 6.278 20.12 13.32 29.007 21.047 4.156-24.368 15.519-47.545 33.635-66.019l.031-.187z"/><path d="M726.471 329.767a1.563 1.563 0 0 0-1.708 1.408c-6.604 68.25-114.321 162.835-220.61 195.398l.01-.002a308.683 308.683 0 0 1-9.414 4.505c3.591-.49 7.167-1.038 10.732-1.625 0 0 1.618-.47 0 0 52.155-15.119 102.124-44.174 146.329-82.776 45.066-39.357 72.796-81.344 76.072-115.196a1.569 1.569 0 0 0-1.41-1.712z"/></g><g fill="#8D9093"><path d="M303.098 249.32c5.856-12.469 13.675-23.994 23.245-33.993l-.214-7.74c-19.928 9.933-33.22 23.437-41.027 33.369a121.081 121.081 0 0 0-5.986 8.363h23.982zM422.255 249.32c2.557-6.014 14.903-35.033 18.824-44.075-6.965 16.164-15.152 18.408-22.782 17.398-7.627-1.01-14.762-2.253-22.917-3.988-8.156-1.733-2.099-4.762 13.383-10.147-6.73 1.234-16.94 4.152-24.943 7.567-21.952 9.208-36.801 23.238-45.313 33.244h83.748zM495.924 229.373c-8.972-.175-15.265-.532-19.747-.822-6.39-.412-1.005-9.836 16.047-20.716-14.697 7.292-21.675 13.892-27.832 19.958-5.891 5.803-11.542 13.311-16.646 21.526h35.859c10.66-6.066 22.024-14.169 27.924-19.472 6.269-5.633 14.01-13.599 18.945-20.666-14.247 15.817-23.109 20.415-34.55 20.192zM247.633 249.32a126.655 126.655 0 0 1 28.1-45.76l-.142-5.09c-16.746 7.061-31.919 18.57-43.118 32.815-4.236 5.39-7.933 11.227-11.085 17.355.359.226.715.454 1.075.68h25.17zM682.449 199.615c-3.757-.002-6.85 0-7.4.01-9.168.191-17.889-3.975-24.564-11.732-7.938-9.23-11.476-21.729-9.458-33.43-8.695 29.816 22.266 49.783 4.126 57.483-12.457 5.286-25.574 9.875-40.629 12.66-18.108 3.348-28.394-10.602-29.801-39.494-1.733 15.88.175 28.108 7.54 42.726 3.72 7.378 9.409 14.217 16.02 19.869.505.43.863.993 1.067 1.613h68.455l4.031-23.773c.225-1.34 1.207-2.376 2.47-2.777a48.646 48.646 0 0 1-2.114-10.332c-.591-6.352 3.982-12.004 10.257-12.823zM148.091 217.98a246.538 246.538 0 0 1 50.894 18.198c4.037-10.976 11.345-24.115 19.768-33.953L148.09 217.98zM337.157 384.777c-5.384 13.012-6.881 25.575-5.984 40.083.335 5.407-3.76 8.409-11.25 6.891l-17.322-3.506c-5.311-1.077-10.746-3.368-7.81-14.678 3.027-11.665 4.825-23.445 4.28-40.905-.429 14.387-4.615 33.166-9.304 43.592-4.644 10.328-1.594 13.664 4.72 14.934 6.314 1.27 23.101 4.705 29.473 5.96 9.757 1.922 12.307-1.253 11.036-10.503-2.198-15.98-1.818-31.355 2.161-41.868M842.686 361.56c-15.092.332-27.654 2.426-38.275 6.314-6.43 2.355-14.197-.534-15.874-6.822-5.133-19.266-23.025-45.337-70.724-56.122-42.879-9.694-79.732-4.09-141.317 11.265-19.851 4.95-49.211 12.538-74.905 21.246-31.594 10.71-64.593 34.342-75.588 49.694-18.185 25.393-20.38 46.288-6.387 66.163 4.54 6.45 1.044 11.817-6.486 12.458-19.286 1.643-38.102-2.804-51.893-10.534-19.745-11.066-22.502-41.12-10.469-66.259-7.779 14.36-9.927 30.902-9.984 44.87-.037 8.826 1.457 13.277 7.273 17.972 16.105 13.006 43.908 22.158 72.32 17.588 9.064-1.457 12.84-6.915 8.094-12.142-18.295-20.14-17.929-40.822 1.18-67.501 10.591-14.787 42.604-37.627 73.379-48.059 25.537-8.655 54.777-16.21 74.552-21.141 60.884-15.182 97.248-20.738 139.24-11.243 46.85 10.593 67 38.2 69.886 63.65.306 2.686 4.268 4.43 8.065 2.492 13.004-6.64 28.933-11.912 47.913-13.889zM399.584 145.924c-9.398 0-6.572 16.846-6.572 16.846s-7.099-24.614-7.356-25.032c9.825-.516 19.525-.641 29.03-.427l-8.848 20.693s3.145-12.08-6.254-12.08zM458.573 184.75l26.987-37.646c9.555 2.714 18.313 5.942 26.199 9.65 0 0-15.945-3.22-27.58 2.151-7.638 3.524-25.606 25.846-25.606 25.846zM455.085 156.668c-5.5-1.947-19.006 16.893-19.006 16.893l23.135-32.27c2.614.431 5.186.895 7.727 1.391l-16.123 37.7s9.765-21.77 4.267-23.714zM430.019 149.505c-5.196-1.267-16.429 12.867-16.429 12.867l17.442-24.334c3.443.241 6.855.538 10.24.883l-12.946 30.272s6.89-18.42 1.693-19.688z"/><path d="M686.915 317.66c-3.775-.213-11.249 2.924-10.71 9.317.206 8.254-1.344 17.36-4.41 27.032 3.973-10.942 9.38-18.131 15.688-22.703 4.367-3.163 19.263-2.265 25.129 2.693s6.504 12.228.353 29.388c.406-.922.986-2.056 1.676-3.32 4.42-10.033 7.217-19.802 8.115-29.075l-.605-7.5c-9.63-2.872-21.266-5.044-35.236-5.831z"/><path d="M689.99 378.194c-7.178-4.263-5.982-15.554-1.12-43.149-7.18 32.306-17.086 60.094-56.988 105.222 32.309-32.308 44.198-55.64 52.5-51.153 4.707 2.544 4.935 10.768-2.467 20.191.076-.046.132-.076.204-.118l.039-.04-.006.003c12.867-14.83 23.238-29.855 30.314-44.4l.018-.05c.13-.201.261-.397.392-.603-9.2 14.471-17.45 17.326-22.887 14.097z"/></g><g fill="#7A99AC"><path d="M599.327 251.601a3.5 3.5 0 0 1-.719 1.25s-32.237 35.079-41.94 46.13c23.24-23.241 36.406-31.957 49.19-31.264 12.787.694 22.636 1.532 29.612 2.08 10.996.857 6.956 11.178-6.84 28.903 6.842-7.518 37.835-41.459 37.835-41.459l.953-5.64h-68.09zM446.338 251.601c-2.208 3.617-4.46 7.353-6.285 11.467-.368.833-1.345 1.627-3.859 2.323-7.347 2.036-14.772 3.611-22.8 4.542l7.885-18.332h-84.665c-24.678 30.203-34.343 75.223-19.64 116.519-9.281-41.975-.328-54.648 12.972-62.617 13.418-8.039 29.797-15.666 52.906-22.846 12.284-3.817 20.864 4.824 6.266 44.039 3.268-7.791 9.305-21.924 16.727-39.215 4.66-10.767 12.117-13.798 19.512-15.507 18.364-4.242 40.452-12.742 54.202-20.373h-33.221zM291.614 290.304c1.416-13.431 4.994-26.496 10.44-38.703h-24.388c-6.193 9.903-10.897 20.627-14.03 32.037 8.13 8.986 15.076 18.549 20.54 28.55 3.985 7.293 7.161 14.736 9.55 22.292.256-.266.523-.521.78-.785-3.402-14.116-4.428-28.812-2.892-43.39zM226.148 251.601c5.913 3.659 12.695 8.956 17.22 12.79.6-3.57 1.856-8.482 3.355-12.79h-20.575zM798.605 293.71a3.59 3.59 0 0 1-.894-7.046 108.664 108.664 0 0 0 21.173-8.452c-5.723-5.54-16.558-8.533-31.705-5.105-18.888 4.278-41.738 1.796-61.411-7.355-38.288.097-57.627 7.643-88.7 34.625 24.595-18.72 43.72-25.363 61.33-22.272 55.975 9.825 101.021 27.265 136.93 53.094 12.832 9.23 14.851 12.707 7.358 30.362 6.371-12.16 15.57-25.507 21.829-32.781-13.05-21.108-43.878-34.582-65.91-35.07zM754.879 196.537l-2.923 23.658s-.759-12.836-4.435-20.122c-3.676-7.286-12.855-13.283-12.855-13.283l20.213 9.747zM705.733 163.38l-28.198 16.562s16.575-6.031 27.75-5.372c11.175.662 23.721 8.952 23.721 8.952l-23.273-20.141zM466.187 423.16c2.054-2.42 4.032-4.934 5.832-7.658-10.24 4.897-19.817 7.953-28.713 9.449 7.159.77 14.801.162 22.881-1.79zM486.606 429.472c-11.478 14.325-27.023 23.607-43.117 28.096-.952-2.45-2.567-5.116-5.152-7.95-1.92-2.104-3.786-4.113-5.115-6.346 16.83 7.688 31.934 5.661 53.384-13.8zM638.46 377.748c2.698-4.468 5.686-9.382 9.425-7.853 4.935 2.02-.225 14.135-4.487 21.09a174.118 174.118 0 0 0-2.887 4.868c13.64-20.546 22.594-40.21 25.435-56.69 1.162-6.74.288-13.208 2.19-18.354-.4-.066-10.743 1.343-14.11 1.79-1.107 4.924-2.661 10.076-3.68 14.037-8.865 34.495-36.763 77.716-73.908 114.673l-.073.076c30.462-28.094 47.066-48.734 62.095-73.637z"/></g><path fill="#FE5000" d="M722.665 222.283c-6.906 0-12.505-5.6-12.505-12.504 0-4.507 2.417-8.408 5.997-10.604 6.627 4.47 10.623 11.71 12.648 21.472a12.379 12.379 0 0 1-6.14 1.636zM226.131 226.302c-4.272 5.436-8.038 11.294-11.29 17.435a240.449 240.449 0 0 0-8.35-4.612c4.755-12.69 11.754-24.186 20.873-34.234 0 0-6.568 11.127-.987 11.897 5.584.772 32.468-18.917 32.468-18.917-12.546 7.37-23.802 17.093-32.714 28.431zM322.05 245.493c4.468 2.365 22.48-18.666 39.509-26.801-13.56 8.135-27.683 23.313-32.186 29.043-18.451 23.478-27.881 52.624-27.442 81.85-8.388-38.647 2.543-80.481 31.205-109.708 0 0-15.553 23.249-11.087 25.616zM276.62 227.352c5.507 1.714 19.235-14.177 36.928-22.063-14.673 8.445-27.687 21.653-34.786 30.685-9.446 12.018-16.56 25.428-21.244 39.935a188.295 188.295 0 0 0-6.962-6.548c4.448-23.272 15.453-44.408 31.966-61.248 0 0-11.41 17.526-5.903 19.24zM674 260.94c.02-.022 3.802-22.326 3.802-22.326.164 9.253.154 16.716 4.657 18.983 6.476 3.264 18.797-1.566 33.73.279-20.114.784-35.216 4.128-50.282 11.967l8.093-8.902zm54.428-2.824-.913-.433s-3.998.013-5.455.036a50.378 50.378 0 0 0 21.788-7.112c-5.741 6.17-2.308 8.855 4.405 11.093 6.715 2.24 22.196 5.319 38.746 3.216-19.182 4.337-39.823 2.117-58.57-6.8zM510.696 272.927c-7.92 1.81-5.881-13.02-5.881-13.02-3.76 10.939-4.757 21.419-2.965 30.607a104.007 104.007 0 0 1 11.698-1.973c2.826-15.546 12.578-30.595 26.665-40.504-16.983 9.897-21.683 23.1-29.517 24.89zM477.577 284.229c-6.863 2.089-9.127-9.053-9.127-9.053.176 9.828 2.256 18.682 6.021 25.912a103.587 103.587 0 0 1 11.044-5.345c-.936-13.227 3.163-28.128 11.32-39.739-10.194 10.769-12.395 26.135-19.258 28.225zM451.616 302.916c-4.62 4.323-12.617-5.054-12.617-5.054 3.161 8.218 7.596 15.14 12.923 20.29a104.448 104.448 0 0 1 9.166-8.103c-3.91-10.761-4.438-22.301-1.474-35.809-5.088 13.01-2.739 23.753-7.998 28.676zM428.455 327.42c-6.523 8.471-28.536 6.49-46.498 19.788 9.569-5.017 29.496-12.502 54.054-8.651 1.8-3.015 3.763-5.956 5.874-8.792-6.156-8.093-9.927-17.189-11.505-29.763-1.405 7.054 4.595 18.948-1.925 27.418zM551.428 275.165c-13.737.463-5.05-20.732-5.05-20.732-8.8 10.876-13.844 22.67-14.49 33.656 7.03.445 13.959 1.589 20.678 3.418l37.068-40.774s-24.47 23.968-38.206 24.432z"/><path fill="#FFF" d="M722.915 205.91c-2.688.683-4.688 3.091-4.688 5.994a6.217 6.217 0 0 0 6.214 6.215 6.183 6.183 0 0 0 3.493-1.075c-1.193-4.287-2.848-8.002-5.019-11.134z"/></svg>